<?xml version="1.0" encoding="UTF-8"?>
<svg xmlns="http://www.w3.org/2000/svg" xmlns:xlink="http://www.w3.org/1999/xlink" width="24px" height="24px" viewBox="0 0 24 24" version="1.1">
<g id="surface1">
<path style=" stroke:none;fill-rule:nonzero;fill:rgb(0%,0%,0%);fill-opacity:1;" d="M 1.664062 0.160156 C 0.863281 0.449219 0.320312 1.023438 0.105469 1.824219 C 0.03125 2.09375 0.0117188 5.691406 0.0195312 12.246094 C 0.0546875 21.789062 0.0625 22.28125 0.257812 22.632812 C 0.535156 23.15625 0.84375 23.476562 1.335938 23.734375 L 1.761719 23.96875 L 22.261719 23.96875 L 22.6875 23.734375 C 23.179688 23.476562 23.488281 23.15625 23.765625 22.632812 C 23.957031 22.28125 23.96875 21.8125 23.96875 12.011719 L 23.96875 1.761719 L 23.734375 1.335938 C 23.476562 0.84375 23.15625 0.535156 22.632812 0.257812 C 22.28125 0.0625 21.789062 0.0546875 12.171875 0.03125 C 3.703125 0.0117188 2.019531 0.03125 1.664062 0.160156 Z M 20.390625 4.152344 L 20.390625 5.957031 L 18.941406 6 L 17.488281 6.03125 L 17.179688 6.382812 L 16.867188 6.726562 L 16.867188 9.609375 L 20.390625 9.609375 L 20.390625 13.238281 L 16.867188 13.238281 L 16.847656 17.421875 L 16.816406 21.621094 L 15.03125 21.652344 L 13.238281 21.671875 L 13.238281 13.238281 L 10.78125 13.238281 L 10.78125 9.609375 L 13.21875 9.609375 L 13.261719 7.546875 C 13.292969 5.53125 13.292969 5.488281 13.601562 4.859375 C 14.210938 3.609375 15.5 2.648438 16.804688 2.457031 C 17.101562 2.414062 18.03125 2.371094 18.875 2.359375 L 20.390625 2.347656 Z M 20.390625 4.152344 "/>
</g>
</svg>
