<?xml version="1.0" encoding="UTF-8"?>
<svg xmlns="http://www.w3.org/2000/svg" xmlns:xlink="http://www.w3.org/1999/xlink" width="24px" height="21px" viewBox="0 0 24 21" version="1.1">
<g id="surface1">
<path style=" stroke:none;fill-rule:nonzero;fill:rgb(0%,0%,0%);fill-opacity:1;" d="M 10.753906 0.101562 C 9.300781 0.28125 7.574219 0.933594 6.308594 1.78125 C 5.0625 2.605469 3.558594 4.304688 2.898438 5.601562 L 2.691406 6.035156 L 21.328125 6.035156 L 21.121094 5.601562 C 20.460938 4.304688 18.957031 2.605469 17.710938 1.78125 C 16.832031 1.1875 15.539062 0.613281 14.511719 0.351562 C 13.457031 0.0820312 11.769531 -0.03125 10.753906 0.101562 Z M 10.753906 0.101562 "/>
<path style=" stroke:none;fill-rule:nonzero;fill:rgb(0%,0%,0%);fill-opacity:1;" d="M 0.0507812 7.765625 C 0.0703125 7.835938 0.359375 8.78125 0.699219 9.855469 C 1.035156 10.933594 1.394531 12.097656 1.503906 12.441406 L 1.714844 13.074219 L 3.058594 13.074219 L 3.5 11.363281 C 3.738281 10.429688 3.964844 9.695312 3.996094 9.734375 C 4.027344 9.777344 4.246094 10.539062 4.484375 11.433594 L 4.914062 13.074219 L 6.238281 13.074219 L 7.066406 10.5 C 7.515625 9.082031 7.914062 7.863281 7.945312 7.785156 C 7.984375 7.675781 7.855469 7.644531 7.285156 7.644531 L 6.589844 7.644531 L 6.488281 8.015625 C 6.257812 8.851562 5.589844 11.082031 5.5625 11.113281 C 5.542969 11.132812 5.332031 10.371094 5.09375 9.402344 L 4.664062 7.644531 L 3.976562 7.644531 C 3.597656 7.644531 3.289062 7.664062 3.289062 7.695312 C 3.289062 7.84375 2.453125 10.921875 2.402344 10.992188 C 2.363281 11.03125 2.113281 10.300781 1.855469 9.351562 L 1.367188 7.644531 L 0.6875 7.644531 C 0.1875 7.644531 0.0195312 7.675781 0.0507812 7.765625 Z M 0.0507812 7.765625 "/>
<path style=" stroke:none;fill-rule:nonzero;fill:rgb(0%,0%,0%);fill-opacity:1;" d="M 8.074219 7.714844 C 8.074219 7.753906 8.441406 8.980469 8.890625 10.441406 L 9.71875 13.085938 L 11.09375 13.023438 L 11.523438 11.386719 C 11.75 10.480469 11.960938 9.714844 11.988281 9.695312 C 12.011719 9.675781 12.230469 10.410156 12.46875 11.335938 L 12.917969 13.023438 L 14.28125 13.023438 L 15.121094 10.410156 C 15.566406 8.972656 15.945312 7.753906 15.945312 7.714844 C 15.945312 7.675781 15.648438 7.644531 15.277344 7.664062 L 14.601562 7.695312 L 14.09375 9.453125 C 13.644531 10.972656 13.566406 11.175781 13.496094 10.914062 C 13.457031 10.742188 13.253906 9.957031 13.054688 9.152344 L 12.699219 7.695312 L 11.320312 7.695312 L 10.875 9.425781 C 10.625 10.371094 10.40625 11.132812 10.386719 11.125 C 10.375 11.101562 10.144531 10.328125 9.878906 9.394531 L 9.398438 7.695312 L 8.742188 7.664062 C 8.371094 7.644531 8.074219 7.675781 8.074219 7.714844 Z M 8.074219 7.714844 "/>
<path style=" stroke:none;fill-rule:nonzero;fill:rgb(0%,0%,0%);fill-opacity:1;" d="M 16.066406 7.765625 C 16.125 7.933594 16.394531 8.769531 17.144531 11.132812 L 17.75 13.074219 L 19.105469 13.074219 L 19.535156 11.386719 C 19.765625 10.460938 19.972656 9.683594 19.992188 9.664062 C 20.023438 9.636719 20.132812 9.996094 20.640625 11.886719 L 20.949219 13.074219 L 22.285156 13.074219 L 23.144531 10.378906 L 24 7.695312 L 23.351562 7.664062 C 22.992188 7.644531 22.683594 7.652344 22.65625 7.683594 C 22.625 7.703125 22.386719 8.488281 22.125 9.402344 C 21.855469 10.328125 21.617188 11.101562 21.609375 11.125 C 21.589844 11.144531 21.378906 10.371094 21.140625 9.402344 L 20.710938 7.644531 L 20.023438 7.644531 C 19.644531 7.644531 19.335938 7.652344 19.335938 7.664062 C 19.335938 7.753906 18.449219 11.09375 18.417969 11.113281 C 18.398438 11.132812 18.167969 10.359375 17.898438 9.394531 L 17.402344 7.644531 L 16.714844 7.644531 C 16.207031 7.644531 16.035156 7.675781 16.066406 7.765625 Z M 16.066406 7.765625 "/>
<path style=" stroke:none;fill-rule:nonzero;fill:rgb(0%,0%,0%);fill-opacity:1;" d="M 3.039062 15.457031 C 4.484375 18.113281 7.027344 19.964844 10.117188 20.628906 C 10.882812 20.800781 13.136719 20.800781 13.902344 20.628906 C 16.992188 19.964844 19.535156 18.113281 20.980469 15.457031 L 21.347656 14.785156 L 2.671875 14.785156 Z M 3.039062 15.457031 "/>
</g>
</svg>
